# xmcd
#
# Track frame offsets: 
#        150
#        17077
#        32806
#        47482
#        65426
#        82597
#        95492
#        110055
#        127223
#        144617
#        165974
#        177519
#        189853
#        202174
#        220800
#        237572
#        251203
#        264688
#        275739
#
# Disc length: 3941 seconds
#
# Revision: 0
# Processed by: cddbd v1.5.2PL0 Copyright (c) Steve Scherf et al.
# Submitted via: ExactAudioCopyFreeDBPlugin 1.0
#
DISCID=1e0f6313
DTITLE=ピエール・ポルト - プラチナム・ベスト ピエール・ポルト
DYEAR=2013
DGENRE=A Cappella
TTITLE0=イビザ島
TTITLE1=愛はルフラン
TTITLE2=ラヴ・ワールド（映画『ワールド・オブ・エレガンス』より）
TTITLE3=百万本のバラ
TTITLE4=谷間に三つの鐘が鳴る
TTITLE5=スカーフ
TTITLE6=映画のあとは
TTITLE7=ジェニーの印象
TTITLE8=夢みる乙女
TTITLE9=夜明け
TTITLE10=夜明け
TTITLE11=水に流して
TTITLE12=ミロール
TTITLE13=モン・ピアノ・アパッショナート
TTITLE14=サラの祈り
TTITLE15=ア・パリ
TTITLE16=王様の牢屋
TTITLE17=バッハのアリオーゾ（恋するガリア）
TTITLE18=海辺のピアノ
EXTD=
EXTT0=
EXTT1=
EXTT2=
EXTT3=
EXTT4=
EXTT5=
EXTT6=
EXTT7=
EXTT8=
EXTT9=
EXTT10=
EXTT11=
EXTT12=
EXTT13=
EXTT14=
EXTT15=
EXTT16=
EXTT17=
EXTT18=
PLAYORDER=
